<?xml version="1.0" encoding="UTF-8"?>
<svg id="Layer_1" data-name="Layer 1" xmlns="http://www.w3.org/2000/svg" viewBox="0 0 556.1 709.92">
  <path class="cls-1" d="M167.16,112.86c-42.32,0-76.63,34.31-76.63,76.63s34.31,76.63,76.63,76.63,76.63-34.31,76.63-76.63-34.31-76.63-76.63-76.63Zm0,130.04c-29.5,0-53.41-23.91-53.41-53.41s23.91-53.41,53.41-53.41,53.41,23.91,53.41,53.41-23.91,53.41-53.41,53.41Z"/>
  <circle class="cls-1" cx="167.16" cy="189.49" r="33.02"/>
  <path class="cls-1" d="M392.93,112.86c-42.32,0-76.63,34.31-76.63,76.63s34.31,76.63,76.63,76.63,76.63-34.31,76.63-76.63-34.31-76.63-76.63-76.63Zm0,130.04c-29.5,0-53.41-23.91-53.41-53.41s23.91-53.41,53.41-53.41,53.41,23.91,53.41,53.41-23.91,53.41-53.41,53.41Z"/>
  <circle class="cls-1" cx="392.93" cy="189.49" r="33.02"/>
  <rect class="cls-1" x="188.23" y="177.88" width="100.43" height="23.22" rx="11.61" ry="11.61"/>
  <rect class="cls-1" x="266.08" y="36.36" width="100.43" height="23.22" rx="11.61" ry="11.61"/>
  <rect class="cls-1" x="120.13" y="368.58" width="68.61" height="23.22" rx="11.61" ry="11.61"/>
  <rect class="cls-1" x="134.14" y="399.8" width="112.46" height="23.22" rx="11.61" ry="11.61"/>
  <rect class="cls-1" x="148.78" y="122.19" width="102.79" height="23.22" rx="11.61" ry="11.61" transform="translate(-15.78 240.26) rotate(-60)"/>
  <rect class="cls-1" x="242.7" y="135.78" width="120.46" height="23.22" rx="11.61" ry="11.61" transform="translate(23.82 336.04) rotate(-60)"/>
  <rect class="cls-1" x="158.45" y="115.48" width="166.42" height="23.22" rx="11.61" ry="11.61" transform="translate(252.43 399.93) rotate(-120)"/>
  <rect class="cls-1" x="254.82" y="101.25" width="166.42" height="23.22" rx="11.61" ry="11.61" transform="translate(409.31 462.03) rotate(-120)"/>
  <path class="cls-1" d="M556.1,709.92v-5.56c0-13.76-11.26-25.02-25.02-25.02H25.02c-13.76,0-25.02,11.26-25.02,25.02v5.56H556.1Z"/>
  <path class="cls-1" d="M490.98,281.35H65.11c-24.02,0-43.68,19.66-43.68,43.68v295.39c0,24.02,19.66,43.68,43.68,43.68H352.55c-.12-.64-.19-1.3-.19-1.98v-233.4c0-5.79,4.74-10.53,10.53-10.53h96.14c5.79,0,10.53,4.74,10.53,10.53v233.4c0,.68-.07,1.34-.19,1.98h21.62c24.02,0,43.68-19.66,43.68-43.68V325.03c0-24.02-19.66-43.68-43.68-43.68Zm-202.49,196.56c0,11.77-9.63,21.4-21.4,21.4H109.36c-11.77,0-21.4-9.63-21.4-21.4v-104.38c0-11.77,9.63-21.4,21.4-21.4h157.73c11.77,0,21.4,9.63,21.4,21.4v104.38Z"/>
  <rect class="cls-1" x="381.49" y="444.17" width="62.01" height="54.28" rx="8.97" ry="8.97"/>
  <rect class="cls-1" x="364.75" y="537.18" width="22.82" height="18.32" rx="8.97" ry="8.97"/>
  <path class="cls-1" d="M189.92,32.88l41.69,7.7c6.86,1.27,11.39,7.85,10.12,14.71-.98,5.28-5.14,9.19-10.12,10.12l-41.69,7.7c-11.11,2.05-21.78-5.29-23.83-16.4-2.84-13.79,10.12-26.62,23.83-23.83h0Z"/>
  <path class="cls-1" d="M405.72,10.41c-8.83,14.71-24.54,24.81-42.68,25.86v.1h-58.06c13.92,14.32,33.38,23.22,54.92,23.22,32.64,0,60.16-20.42,71.2-49.18,0,0,3.83-10.41-8.56-10.41s-16.83,10.41-16.83,10.41Z"/>
</svg>